<svg width="641" height="639" viewBox="0 0 641 639" fill="none" xmlns="http://www.w3.org/2000/svg">
<path d="M586.372 247.429C579.817 162.173 576.539 119.545 561.283 91.9652C517.602 12.9964 390.603 -5.78561 310.393 1.41682C203.011 11.0566 80.1679 76.1751 26.0941 201.903C-23.019 316.099 -0.372703 445.361 73.6302 529.919C209.289 684.926 489.123 657.251 557.482 555.538C584.762 514.946 586.729 450.11 589.619 354.87C591.008 309.024 588.297 272.489 586.372 247.429Z" fill="#F4F7FA"/>
<path d="M564.653 51.769C557.325 45.7058 546.208 42.4037 536.811 41.7368C470.199 37.0165 460.477 176.253 470.688 207.371C480.898 238.488 474.282 248.705 421.82 264.985C369.357 281.265 394.525 312.611 400.92 330.942C407.314 349.273 419.977 364.758 381.732 382.973C343.488 401.187 356.779 412.473 356.779 412.473C356.779 412.473 427.307 484.616 423.411 461.519C419.515 438.422 426.574 403.546 489.809 400.895C517.046 399.753 558.755 386.761 567.99 357.597C570.141 350.805 571.637 340.433 570.002 333.403C567.732 323.652 561.333 315.97 557.779 306.792C549.499 285.406 570.269 269.744 582.221 255.448C588.463 247.985 594.699 240.333 599.477 231.824C609.399 214.158 605.684 195.212 594.88 178.928C589.698 171.12 582.5 162.835 580.239 153.52C577.812 143.515 579.929 129.845 580.504 119.553C580.956 111.48 581.726 103.439 581.271 95.3457C580.431 80.2964 576.905 61.9061 564.653 51.769Z" fill="url(#paint0_linear_1_7)"/>
<g opacity="0.8">
<g opacity="0.8">
<path opacity="0.8" d="M351.233 452.964C350.776 453.129 350.258 452.935 350.027 452.494C349.776 452.012 349.961 451.416 350.443 451.165C350.74 451.01 380.432 435.392 413.554 409.669C444.075 385.966 483.836 348.594 499.933 305.148C513.379 268.863 525.64 208.876 533.576 140.571C540.692 79.3213 541.816 34.0226 538.792 25.6142C538.607 25.1026 538.874 24.5386 539.386 24.3536C539.897 24.1686 540.461 24.4358 540.646 24.9473C544.184 34.7853 541.939 85.6721 535.536 140.8C527.584 209.255 515.282 269.406 501.783 305.833C485.519 349.725 445.47 387.385 414.737 411.246C381.478 437.07 351.655 452.754 351.359 452.91C351.315 452.93 351.274 452.948 351.233 452.964Z" fill="white"/>
</g>
<g opacity="0.8">
<path opacity="0.8" d="M533.468 152.444C532.959 152.627 532.441 152.486 532.253 151.976C532.007 151.303 507.174 84.4942 475.153 69.4106C474.659 69.18 474.461 68.6228 474.691 68.1295C474.924 67.6362 475.516 67.4421 476.007 67.6728C508.761 83.1012 533.078 148.507 534.099 151.291C534.286 151.803 533.984 152.259 533.473 152.442C533.471 152.444 533.468 152.444 533.468 152.444Z" fill="white"/>
</g>
<g opacity="0.8">
<path opacity="0.8" d="M521.357 229.921C520.978 230.058 520.535 229.951 520.263 229.62C519.918 229.2 519.978 228.579 520.398 228.234C520.581 228.083 538.864 213.086 561.422 200.501C591.902 183.497 615.261 178.749 630.849 186.393C631.338 186.632 631.539 187.222 631.299 187.71C631.059 188.199 630.47 188.4 629.982 188.16C594.114 170.576 522.369 229.159 521.649 229.752C521.56 229.828 521.46 229.885 521.357 229.921Z" fill="white"/>
</g>
<g opacity="0.8">
<path opacity="0.8" d="M441.76 388.287C441.659 388.324 441.554 388.342 441.442 388.344C440.899 388.353 440.451 387.92 440.442 387.374C440.438 387.088 439.931 358.424 433.931 328.22C428.43 300.529 417.071 265.842 394.198 257.849C393.684 257.669 393.412 257.107 393.593 256.596C393.771 256.082 394.335 255.81 394.847 255.99C413.92 262.654 427.72 286.836 435.868 327.864C441.899 358.239 442.406 387.056 442.411 387.344C442.42 387.778 442.146 388.148 441.76 388.287Z" fill="white"/>
</g>
<g opacity="0.8">
<path opacity="0.8" d="M482.463 341.976C482.063 342.12 481.602 341.992 481.337 341.633C481.013 341.195 481.106 340.578 481.542 340.256C484.714 337.911 559.536 282.905 588.715 288.157C589.251 288.253 589.605 288.767 589.509 289.301C589.413 289.838 588.902 290.194 588.365 290.096C560.014 284.992 483.484 341.27 482.714 341.839C482.636 341.901 482.55 341.944 482.463 341.976Z" fill="white"/>
</g>
</g>
<path d="M623.117 256.849C618.273 248.665 608.929 241.795 600.312 237.988C539.225 211.007 482.964 338.741 482.042 371.477C481.119 404.214 471.436 411.59 416.562 409.158C361.686 406.726 374.762 444.74 374.577 464.153C374.392 483.566 381.067 502.422 338.916 506.622C296.764 510.822 305.451 525.937 305.451 525.937C305.451 525.937 347.409 617.69 351.558 594.637C355.707 571.583 374.15 541.153 434.551 560.057C460.566 568.199 504.211 570.087 522.771 545.769C527.094 540.105 532.01 530.852 532.849 523.683C534.011 513.74 530.59 504.345 530.35 494.507C529.793 471.579 554.639 463.87 570.723 454.463C579.12 449.553 587.579 444.461 594.955 438.071C610.269 424.805 613.185 405.721 608.529 386.741C606.296 377.641 602.324 367.408 603.35 357.878C604.45 347.643 611.068 335.494 615.092 326.003C618.248 318.561 621.694 311.253 624.005 303.484C628.31 289.031 631.217 270.533 623.117 256.849Z" fill="url(#paint1_linear_1_7)"/>
<g opacity="0.8">
<g opacity="0.8">
<path opacity="0.8" d="M286.53 562.16C286.046 562.16 285.623 561.802 285.555 561.309C285.482 560.77 285.859 560.272 286.398 560.199C286.729 560.153 319.954 555.503 359.826 542.505C396.566 530.529 446.628 508.814 476.478 473.378C501.409 443.782 533.245 391.484 563.823 329.894C591.243 274.666 607.628 232.418 607.628 223.482C607.628 222.939 608.069 222.498 608.613 222.498C609.156 222.498 609.597 222.939 609.597 223.482C609.597 233.937 590.266 281.062 565.586 330.771C534.94 392.496 503.01 444.938 477.983 474.648C447.827 510.447 397.397 532.333 360.402 544.389C320.367 557.435 286.996 562.103 286.663 562.149C286.621 562.158 286.576 562.16 286.53 562.16Z" fill="white"/>
</g>
<g opacity="0.8">
<path opacity="0.8" d="M559.706 341.235C559.165 341.235 558.724 340.824 558.722 340.283C558.718 339.566 557.957 268.245 532.928 243.216C532.542 242.832 532.542 242.213 532.928 241.83C533.312 241.446 533.935 241.448 534.321 241.832C559.923 267.434 560.672 337.305 560.693 340.269C560.697 340.812 560.259 341.235 559.713 341.235C559.709 341.235 559.706 341.235 559.706 341.235Z" fill="white"/>
</g>
<g opacity="0.8">
<path opacity="0.8" d="M522.094 409.843C521.69 409.843 521.311 409.592 521.167 409.19C520.984 408.678 521.249 408.114 521.763 407.929C521.985 407.849 544.264 399.923 569.752 395.714C604.187 390.025 627.775 393.464 639.86 405.931C640.239 406.321 640.228 406.945 639.837 407.324C639.447 407.703 638.824 407.692 638.444 407.301C610.643 378.618 523.307 409.468 522.428 409.783C522.316 409.824 522.204 409.843 522.094 409.843Z" fill="white"/>
</g>
<g opacity="0.8">
<path opacity="0.8" d="M393.605 531.932C393.5 531.932 393.393 531.914 393.285 531.879C392.771 531.703 392.495 531.144 392.673 530.628C392.765 530.356 401.988 503.213 406.562 472.76C410.755 444.84 411.803 408.356 392.984 393.094C392.561 392.752 392.497 392.131 392.84 391.708C393.183 391.286 393.804 391.22 394.226 391.564C409.919 404.289 414.724 431.716 408.506 473.077C403.904 503.701 394.63 530.991 394.537 531.265C394.397 531.674 394.014 531.932 393.605 531.932Z" fill="white"/>
</g>
<g opacity="0.8">
<path opacity="0.8" d="M447.574 502.126C447.149 502.126 446.759 501.85 446.631 501.425C446.474 500.904 446.77 500.354 447.291 500.198C451.068 499.066 540.09 472.621 565.77 487.437C566.24 487.709 566.402 488.312 566.13 488.782C565.859 489.253 565.256 489.415 564.785 489.143C539.832 474.747 448.773 501.811 447.857 502.085C447.764 502.112 447.668 502.126 447.574 502.126Z" fill="white"/>
</g>
</g>
<path d="M418.345 26.7401L417.641 31.7779C415.305 31.8852 413.008 32.1866 410.772 32.689L408.868 27.9893C408.349 26.7081 406.881 26.0984 405.591 26.6305L397.513 29.9578C396.221 30.4899 395.59 31.9651 396.107 33.2485L398.02 38.0077C396.063 39.2545 394.213 40.6659 392.492 42.2279L388.436 39.081C387.34 38.2315 385.75 38.4416 384.885 39.5514L379.459 46.4938C378.589 47.6059 378.774 49.1999 379.87 50.0517L383.942 53.2168C382.857 55.2539 381.946 57.4051 381.21 59.6499L376.042 58.9717C374.654 58.789 373.361 59.7732 373.156 61.1708L371.856 69.9264C371.649 71.3285 372.608 72.6165 373.998 72.7992L379.182 73.4797C379.244 75.8433 379.502 78.1681 379.961 80.4312L375.097 82.4591C373.786 83.0049 373.142 84.5144 373.658 85.8275L376.899 94.0624C377.417 95.3823 378.904 96.0058 380.219 95.4554L385.086 93.4184C386.31 95.4097 387.705 97.2869 389.253 99.0316L386.011 103.243C385.134 104.382 385.321 106.013 386.431 106.885L393.382 112.338C394.494 113.211 396.109 112.992 396.984 111.848L400.187 107.664C402.234 108.753 404.399 109.66 406.657 110.384L405.929 115.604C405.73 117.034 406.705 118.342 408.107 118.525L416.883 119.676C418.288 119.861 419.583 118.849 419.779 117.42L420.487 112.238C422.873 112.135 425.219 111.827 427.5 111.313L429.425 116.1C429.96 117.429 431.455 118.057 432.766 117.502L440.951 114.033C442.259 113.478 442.883 111.955 442.346 110.63L440.421 105.878C442.419 104.588 444.301 103.124 446.046 101.505L450.047 104.615C451.166 105.485 452.769 105.266 453.627 104.126L458.987 97.0197C459.844 95.8847 459.631 94.2656 458.514 93.4001L454.55 90.3263C455.63 88.2322 456.528 86.0193 457.24 83.7151L462.196 84.3659C463.586 84.5486 464.861 83.5553 465.041 82.1485L466.167 73.3701C466.347 71.9703 465.368 70.6868 463.979 70.5041L459.037 69.8556C458.935 67.4623 458.633 65.1147 458.126 62.8333L462.709 60.9151C463.997 60.3761 464.607 58.8872 464.073 57.59L460.725 49.4968C460.191 48.2042 458.715 47.5922 457.427 48.1288L452.817 50.0517C451.561 48.0809 450.14 46.222 448.562 44.5024L451.609 40.5266C452.456 39.419 452.248 37.8364 451.147 36.9892L444.262 31.6979C443.161 30.853 441.583 31.0608 440.734 32.1638L437.669 36.1442C435.637 35.0892 433.49 34.2122 431.25 33.518L431.933 28.5191C432.12 27.1443 431.158 25.8814 429.781 25.701L421.179 24.5729C419.809 24.3971 418.537 25.3631 418.345 26.7401ZM388.016 67.5468C390.503 50.2458 406.381 38.1173 423.497 40.3621C440.613 42.607 452.634 58.3962 450.334 75.72C448.021 93.1512 432.108 105.517 414.805 103.25C397.502 100.98 385.515 84.9529 388.016 67.5468Z" fill="#D8DEE8"/>
<path d="M286.436 24.0085L285.349 31.7981C281.738 31.9625 278.185 32.4284 274.727 33.2048L271.784 25.9382C270.98 23.956 268.712 23.0151 266.719 23.8372L254.229 28.9823C252.231 29.8067 251.256 32.0835 252.055 34.0726L255.015 41.4305C251.989 43.3579 249.128 45.5388 246.467 47.9572L240.187 43.0908C238.495 41.7776 236.035 42.1042 234.697 43.817L226.307 54.5502C224.962 56.2697 225.247 58.7338 226.942 60.0515L233.238 64.9477C231.562 68.0968 230.15 71.4241 229.013 74.893L221.023 73.8448C218.878 73.5639 216.88 75.0848 216.558 77.2452L214.551 90.785C214.229 92.9544 215.713 94.9435 217.864 95.2244L225.878 96.2749C225.974 99.9287 226.371 103.526 227.083 107.024L219.563 110.16C217.535 111.004 216.54 113.336 217.339 115.369L222.349 128.1C223.151 130.139 225.451 131.105 227.483 130.253L235.008 127.104C236.899 130.183 239.057 133.085 241.452 135.782L236.44 142.293C235.083 144.056 235.373 146.577 237.09 147.924L247.84 156.356C249.559 157.705 252.055 157.365 253.409 155.597L258.363 149.13C261.526 150.816 264.876 152.218 268.367 153.337L267.239 161.409C266.931 163.62 268.438 165.643 270.61 165.926L284.179 167.705C286.349 167.991 288.354 166.427 288.655 164.216L289.752 156.205C293.442 156.047 297.068 155.57 300.594 154.775L303.57 162.177C304.397 164.232 306.71 165.203 308.736 164.344L321.392 158.982C323.413 158.126 324.379 155.769 323.547 153.718L320.57 146.369C323.659 144.376 326.569 142.11 329.268 139.607L335.452 144.417C337.181 145.762 339.659 145.421 340.988 143.663L349.275 132.676C350.597 130.923 350.271 128.417 348.544 127.079L342.415 122.329C344.087 119.089 345.473 115.668 346.574 112.107L354.238 113.112C356.389 113.395 358.36 111.859 358.638 109.685L360.378 96.1105C360.657 93.9433 359.141 91.9611 356.996 91.6802L349.355 90.6776C349.198 86.9781 348.732 83.3471 347.946 79.8211L355.035 76.8546C357.028 76.0211 357.971 73.7192 357.14 71.7141L351.963 59.1997C351.136 57.2015 348.855 56.2561 346.866 57.085L339.739 60.056C337.798 57.0074 335.598 54.1345 333.162 51.4786L337.871 45.331C339.181 43.6206 338.862 41.1725 337.156 39.8617L326.509 31.6816C324.808 30.3753 322.367 30.6973 321.054 32.4032L316.313 38.5577C313.168 36.9272 309.85 35.5707 306.388 34.4951L307.445 26.7649C307.735 24.6388 306.246 22.6885 304.12 22.4099L290.818 20.6652C288.697 20.3866 286.733 21.8824 286.436 24.0085ZM239.541 87.1037C243.384 60.3529 267.936 41.5995 294.399 45.0707C320.862 48.5418 339.449 72.9542 335.895 99.7415C332.319 126.691 307.717 145.814 280.964 142.304C254.209 138.797 235.672 114.014 239.541 87.1037Z" fill="#D8DEE8"/>
<path d="M273.709 99.4379L215.531 583.012C214.658 590.262 219.655 596.762 226.657 597.456L468.98 624.06C483.824 624.983 491.951 617.399 492.869 609.689L553.951 95.5693C554.862 87.9031 547.579 80.9585 532.671 80.9585L288.144 86.1081C281.062 86.2292 274.577 92.2261 273.709 99.4379Z" fill="url(#paint2_linear_1_7)"/>
<path d="M262.802 98.607L204.304 584.599C203.427 591.887 208.442 598.42 215.466 599.119L466.687 624.132C474.563 624.915 481.782 619.217 482.702 611.469L544.126 94.6929C545.042 86.9855 539.257 80.7922 531.294 80.927L277.287 85.2134C270.185 85.3299 263.674 91.3587 262.802 98.607Z" fill="url(#paint3_linear_1_7)"/>
<path d="M267.57 125.412L213.349 576.023C212.529 582.831 217.226 588.924 223.801 589.563L460.066 612.53C467.388 613.243 474.097 607.924 474.956 600.71L531.72 123.329C532.575 116.154 527.203 110.347 519.807 110.427L281.116 112.968C274.473 113.037 268.385 118.639 267.57 125.412Z" fill="#D8DEE8"/>
<path d="M394.267 98.2709C393.957 100.858 395.813 102.93 398.417 102.895C401.022 102.863 403.388 100.735 403.699 98.143C404.009 95.5511 402.146 93.4798 399.54 93.5186C396.935 93.5574 394.576 95.6858 394.267 98.2709Z" fill="url(#paint4_linear_1_7)"/>
<path d="M308.417 427.892C356.785 338.466 429.042 311.697 450.797 219.533C462.555 169.715 454.544 122.033 441.05 82.4477L531.298 80.9245C539.261 80.7898 545.045 86.9854 544.13 94.6904L482.706 611.466C481.786 619.217 474.567 624.915 466.691 624.129L269.207 604.467C267.743 524.338 286.855 467.754 308.417 427.892Z" fill="white"/>
<path d="M24.291 149.891C24.291 102.373 65.7417 63.8592 115.484 63.8638C163.756 63.8683 201.852 100.357 201.852 145.361C201.852 190.365 163.756 228.796 115.484 231.265C65.7394 233.809 24.291 197.41 24.291 149.891Z" fill="url(#paint5_linear_1_7)"/>
<path d="M29.6533 146.102C29.6533 98.5841 69.9051 60.0701 118.207 60.0747C165.081 60.0793 202.076 96.5676 202.076 141.572C202.076 186.576 165.081 225.007 118.207 227.476C69.9028 230.02 29.6533 193.619 29.6533 146.102Z" fill="url(#paint6_linear_1_7)"/>
<g opacity="0.5">
<path opacity="0.5" d="M43.4326 145.739C43.4326 105.816 77.249 73.457 117.832 73.4639C157.214 73.4684 188.297 104.124 188.297 141.935C188.297 179.745 157.216 212.034 117.832 214.108C77.249 216.245 43.4326 185.662 43.4326 145.739Z" fill="white"/>
</g>
<path opacity="0.5" d="M115.039 79.5978C154.421 79.6023 185.504 110.258 185.504 148.069C185.504 157.059 183.73 165.731 180.521 173.764C185.49 164.091 188.299 153.264 188.299 141.935C188.299 104.124 157.219 73.4684 117.835 73.4639C86.5348 73.4616 59.2771 92.7174 48.4365 119.838C60.7112 95.9944 86.1557 79.5955 115.039 79.5978Z" fill="white"/>
<path d="M84.1836 135.968V170.812C84.1836 180.885 92.6583 188.832 103.081 188.561L128.925 187.887C139.222 187.618 147.544 179.321 147.544 169.353V134.876L84.1836 135.968ZM107.984 171.99L112.786 157.437C110.729 156.375 109.336 154.283 109.336 151.846C109.336 148.27 112.337 145.313 116.032 145.244C119.722 145.173 122.711 148.01 122.711 151.579C122.711 154.011 121.323 156.156 119.272 157.302L124.056 171.616L107.984 171.99Z" fill="white"/>
<path d="M140.197 131.855C137.454 131.901 135.23 129.779 135.23 127.114C135.23 116.872 126.632 108.651 116.029 108.788C105.39 108.925 96.7048 117.422 96.7048 127.728C96.7048 130.409 94.4508 132.62 91.667 132.668C88.8809 132.714 86.6201 130.576 86.6201 127.89C86.6201 112.204 99.8494 99.2922 116.031 99.1118C132.127 98.9314 145.155 111.423 145.155 126.959C145.155 129.617 142.937 131.809 140.197 131.855Z" fill="white"/>
<path d="M200.056 330.594C200.056 330.594 198.298 324.004 199.544 322.318C200.789 320.633 208.405 313.896 207.674 316.093C206.941 318.29 205.843 319.754 205.843 319.754C205.843 319.754 209.944 321.658 207.307 324.513C204.671 327.37 203.79 328.027 203.644 330.592C203.5 333.157 201.814 334.036 200.056 330.594Z" fill="url(#paint7_linear_1_7)"/>
<path d="M126.899 615.086C126.899 615.086 125.967 620.786 126.086 622.814C126.204 624.842 148.717 625.878 148.943 624.36C149.169 622.841 145.223 620.423 142.444 619.571C139.664 618.717 131.53 616.442 131.53 616.442L126.899 615.086Z" fill="url(#paint8_linear_1_7)"/>
<path d="M132.363 609.404L131.645 616.492C131.645 616.492 129.031 618.221 126.727 616.888L125.573 609.173L132.363 609.404Z" fill="url(#paint9_linear_1_7)"/>
<path d="M86.7317 624.326C86.7317 624.326 85.7999 630.026 85.9187 632.054C86.0374 634.081 108.55 635.118 108.776 633.6C109.004 632.081 105.056 629.663 102.277 628.811C99.4973 627.959 91.3629 625.682 91.3629 625.682L86.7317 624.326Z" fill="url(#paint10_linear_1_7)"/>
<path d="M92.1975 618.644L91.4805 625.732C91.4805 625.732 88.8657 627.461 86.5615 626.127L85.4082 618.413L92.1975 618.644Z" fill="url(#paint11_linear_1_7)"/>
<path d="M128.278 424.368C130.879 429.643 133.483 434.919 136.084 440.194C138.176 470.299 139.217 503.038 138.548 538.049C138.05 564.096 136.659 588.771 134.659 611.932C131.13 611.77 127.602 611.608 124.074 611.445C118.972 601.32 112.95 585.98 112.395 567.044C111.818 547.293 117.805 544.669 117.426 525.758C116.933 501.245 106.654 494.705 101.178 465.221C99.0838 453.944 97.6748 439.216 99.3488 421.349C108.993 422.356 118.634 423.363 128.278 424.368Z" fill="url(#paint12_linear_1_7)"/>
<path opacity="0.3" d="M99.3507 421.349C104.557 421.893 109.764 422.436 114.973 422.98C124.348 439.292 126.965 456.269 125.318 463.78C122.991 474.405 116.834 477.808 117.175 488.475C117.51 499.03 123.729 501.768 127.673 514.207C130.404 522.821 129.682 530.741 128.129 546.229C125.001 577.426 117.467 586.967 123.777 597.195C125.569 600.103 128.801 603.562 135.131 606.204C134.976 608.118 134.823 610.036 134.661 611.93C131.132 611.77 127.604 611.605 124.076 611.445C118.974 601.32 112.952 585.98 112.397 567.044C111.82 547.293 117.807 544.669 117.428 525.758C116.935 501.245 106.656 494.707 101.18 465.223C99.0858 453.946 97.6745 439.219 99.3507 421.349Z" fill="url(#paint13_linear_1_7)"/>
<path d="M114.277 433.866C109.392 460.503 105.078 489.01 101.712 519.243C97.6473 555.747 95.4778 590.162 94.626 622.113C90.7529 622.222 86.8821 622.332 83.0091 622.442C67.7496 592.254 66.8179 571.788 69.0171 558.463C69.8643 553.329 72.1685 543.26 72.6938 528.211C73.0592 517.722 72.39 509.738 71.5542 500.142C69.7227 479.103 67.4984 474.511 67.1787 458.418C66.8773 443.314 66.8156 435.673 71.1272 431.213C82.4861 419.459 112.037 432.825 114.277 433.866Z" fill="url(#paint14_linear_1_7)"/>
<path d="M198.031 329.579C200.607 329.398 203.18 329.22 205.756 329.04C211.831 353.591 207.474 377.405 193.763 386.163C172.34 399.847 132.524 374.067 123.896 345.994C120.11 333.671 120.971 315.89 128.541 312.435C130.642 311.476 133.903 311.328 140.967 315.292C162.061 327.135 162.616 349.52 173.34 351.415C178.104 352.26 185.804 349.22 198.031 329.579Z" fill="url(#paint15_linear_1_7)"/>
<path d="M139.048 445.595C142.759 439.438 138.098 433.501 137.038 421.838C135.837 408.618 140.93 406.417 145.965 384.509C149.315 369.94 152.528 355.952 148.692 339.578C146.853 331.732 143.734 318.423 132.718 311.994C127.034 308.676 119.271 309.009 103.982 309.809C85.0736 310.797 75.6215 311.291 68.5696 315.004C67.5374 315.547 46.0893 327.215 44.6117 346.233C43.1091 365.589 64.1872 368.19 66.9984 394.003C68.2613 405.59 66.0119 423.411 64.5526 434.969C63.1527 446.068 62.1868 448.909 64.3791 452.27C69.6589 460.37 85.8203 458.061 118.143 453.446C130.822 451.633 136.278 450.19 139.048 445.595Z" fill="url(#paint16_linear_1_7)"/>
<path d="M89.8659 389.849C88.498 394.88 83.5836 398.636 80.1627 410.875C79.425 413.517 74.1612 432.332 80.987 436.963C84.9286 439.637 88.4683 434.57 98.0368 433.907C114.616 432.761 122.515 446.696 133.347 442.889C135.226 442.227 137.706 440.82 140.184 437.586C140.677 440.5 140.593 443.033 139.049 445.598C136.281 450.192 130.823 451.636 118.144 453.446C85.8216 458.062 69.6601 460.371 64.3803 452.27C62.1902 448.911 63.154 446.068 64.5538 434.969C66.0131 423.41 68.2625 405.588 66.9996 394.003C64.1885 368.191 43.108 365.59 44.6129 346.233C45.0148 341.058 46.9171 336.452 49.4634 332.44C76.2028 343.26 94.1615 374.039 89.8659 389.849Z" fill="url(#paint17_linear_1_7)"/>
<path d="M56.0947 427.921L61.4453 431.338C62.4068 430.228 64.631 427.99 68.1022 427.227C72.0141 426.366 76.5061 427.602 76.6088 428.849C76.6933 429.849 73.9575 430.858 73.535 431.013C70.121 432.274 67.5884 431.226 66.209 432.598C65.7203 433.082 65.1129 433.987 63.713 434.823C63.3453 435.042 62.9617 435.236 62.7584 435.316C60.4794 436.202 56.572 432.235 56.2363 431.888L56.0947 427.921Z" fill="url(#paint18_linear_1_7)"/>
<path d="M71.8996 357.754C75.7704 348.485 78.4514 334.292 72.3381 313.216C32.0589 329.087 11.5174 366.713 19.5376 396.537C26.1488 421.126 50.2048 433.101 55.5714 435.622C56.8206 432.779 58.0697 429.938 59.3166 427.097C53.0982 420.173 46.0897 409.933 47.0808 398.248C48.4556 382.048 64.0644 376.519 71.8996 357.754Z" fill="url(#paint19_linear_1_7)"/>
<path d="M102.991 290.74C102.991 290.74 102.673 297.785 100.485 303.062C98.5078 307.831 88.1126 310.829 86.0048 311.893C83.8969 312.957 89.9532 316.07 96.0346 316.68C102.116 317.292 119.481 315.91 122.612 313.606C125.743 311.302 120.095 311.475 115.756 309.881C111.415 308.287 108.905 299.799 109.673 295.946C110.44 292.092 102.991 290.74 102.991 290.74Z" fill="url(#paint20_linear_1_7)"/>
<path d="M112.609 288.185C115.765 285.083 116.206 284.723 116.549 283.652C117.928 279.351 114.592 273.46 110.216 272.009C109.988 271.934 107.053 270.996 105.934 272.268C104.982 273.348 106.382 274.841 105.717 276.926C105.094 278.876 103.404 279.023 100.268 281.58C97.6857 283.686 96.0825 284.997 95.7126 286.84C94.9498 290.637 99.5468 296.141 103.616 295.992C105.08 295.938 105.48 295.191 112.609 288.185Z" fill="url(#paint21_linear_1_7)"/>
<path d="M104.017 296.579C104.017 296.579 107.371 300.377 112.48 299.121C117.054 297.997 115.887 287.497 112.539 285.821C111.422 285.261 109.392 285.307 107.867 286.042C106.965 286.476 106.714 286.928 105.227 287.609C103.857 288.237 103.421 288.15 103.053 288.593C102.592 289.146 102.393 290.338 103.838 293.211C102.797 292.473 101.676 292.318 100.988 292.807C100.879 292.884 100.6 293.158 100.479 293.517C100.043 294.816 101.395 296.138 104.017 296.579Z" fill="url(#paint22_linear_1_7)"/>
<path d="M486.589 154.41L487.77 160.783L463.465 160.84L252.546 161.341C247.12 161.354 242.13 165.839 241.386 171.359L191.036 507.863C190.287 513.433 198.955 521.935 204.349 522.35L297.922 529.542V529.428L437.892 540.165C437.895 540.165 437.897 540.165 437.899 540.165L438.237 540.307C444.214 540.768 449.697 536.432 450.473 530.549C450.473 530.547 450.473 530.574 450.475 530.572L497.628 171.295C498.396 165.467 492.6 154.394 486.589 154.41Z" fill="url(#paint23_linear_1_7)"/>
<path d="M445.704 523.548C444.932 529.433 439.452 533.831 433.475 533.372L199.345 515.395C193.954 514.982 190.202 510.131 190.951 504.561L236.722 164.479C237.464 158.959 242.454 154.474 247.875 154.458L483.327 153.81C489.336 153.794 493.597 158.505 492.834 164.333L445.704 523.548Z" fill="url(#paint24_linear_1_7)"/>
<path d="M448.814 336.522C448.431 339.436 445.709 341.61 442.735 341.5L236.674 333.98C233.954 333.882 232.04 331.641 232.415 328.858L236.466 298.83C236.841 296.048 239.323 294.167 242.045 294.242L448.287 299.969C451.265 300.052 453.373 302.155 452.991 305.066L448.814 336.522Z" fill="white"/>
<path d="M440.836 397.535C440.452 400.455 437.728 402.947 434.755 402.798L228.849 392.627C226.131 392.492 224.24 389.891 224.615 387.105L228.698 356.497C229.072 353.714 231.578 351.327 234.297 351.437L440.329 359.747C443.302 359.868 445.406 362.558 445.022 365.474L440.836 397.535Z" fill="white"/>
<path opacity="0.1" d="M453.008 304.946C452.519 304.788 451.994 304.701 451.434 304.685L245.188 298.96C242.468 298.883 239.984 300.769 239.614 303.544L235.556 333.571C235.546 333.649 235.54 333.722 235.533 333.8C233.441 333.211 232.096 331.228 232.411 328.853L236.469 298.826C236.839 296.051 239.324 294.162 242.043 294.242L448.29 299.967C451.215 300.054 453.314 302.091 453.008 304.946Z" fill="url(#paint25_linear_1_7)"/>
<path opacity="0.1" d="M445.066 364.798C444.571 364.602 444.036 364.483 443.47 364.46L237.443 356.147C234.723 356.038 232.213 358.429 231.843 361.213L227.753 391.823C227.73 392.019 227.714 392.209 227.714 392.405C225.623 391.729 224.293 389.48 224.609 387.105L228.699 356.495C229.069 353.711 231.576 351.32 234.298 351.429L440.325 359.742C443.077 359.861 445.073 362.156 445.066 364.798Z" fill="url(#paint26_linear_1_7)"/>
<path d="M386.074 446.988C386.682 442.381 383.425 438.138 378.796 437.871L272.206 431.751C267.792 431.498 263.716 435.215 263.115 439.7L258.717 472.855C258.116 477.347 261.179 481.644 265.591 481.946L372.126 489.235C376.752 489.553 381.014 485.645 381.623 481.032L386.074 446.988Z" fill="url(#paint27_linear_1_7)"/>
<path d="M394.124 223.615C392.72 234.214 387.275 243.78 379.534 250.816C371.192 258.405 360.203 263.022 348.775 262.801C337.405 262.582 327.834 257.615 321.689 249.857C316.021 242.707 313.244 233.179 314.635 222.759C317.528 201.08 337.446 183.556 359.303 183.608C381.368 183.656 397.043 201.567 394.124 223.615Z" fill="url(#paint28_linear_1_7)"/>
<path d="M372.869 211.569C371.609 221.064 362.844 228.674 353.328 228.559C343.851 228.445 337.215 220.711 338.468 211.284C339.724 201.859 348.4 194.257 357.882 194.3C367.405 194.343 374.13 202.074 372.869 211.569Z" fill="white"/>
<path d="M379.535 250.816C371.193 258.405 360.204 263.022 348.777 262.801C337.407 262.582 327.836 257.615 321.69 249.857C328.724 240.058 340.325 233.54 352.645 233.7C365.032 233.86 375.016 240.725 379.535 250.816Z" fill="white"/>
<path opacity="0.4" d="M492.833 164.332L445.705 523.547C444.933 529.429 439.103 533.803 433.129 533.344L292.508 522.546C285.828 515.707 280.327 507.499 276.401 497.65C274.474 492.82 273.063 487.609 272.124 482.128C269.514 466.96 270.525 449.718 274.332 432.794C277.26 419.766 281.85 406.904 287.726 395.299C292.426 386.02 297.952 377.536 304.125 370.407C308.569 365.275 313.376 360.29 318.446 355.401C324.559 349.5 331.056 343.741 337.759 338.034C353.377 324.727 370.1 311.717 385.583 297.978C421.309 266.286 450.293 230.873 443.318 180.345C443.095 178.753 440.918 166.565 438.137 153.932L482.979 153.809C488.985 153.793 493.598 158.506 492.833 164.332Z" fill="white"/>
<defs>
<linearGradient id="paint0_linear_1_7" x1="428.187" y1="460.786" x2="594.983" y2="10.3055" gradientUnits="userSpaceOnUse">
<stop offset="0.00359712" stop-color="#E38DDD"/>
<stop offset="1" stop-color="#9571F6"/>
</linearGradient>
<linearGradient id="paint1_linear_1_7" x1="304.712" y1="416.313" x2="628.243" y2="416.313" gradientUnits="userSpaceOnUse">
<stop stop-color="#FF9085"/>
<stop offset="1" stop-color="#FB6FBB"/>
</linearGradient>
<linearGradient id="paint2_linear_1_7" x1="387.738" y1="340.042" x2="483.236" y2="350.46" gradientUnits="userSpaceOnUse">
<stop stop-color="#444B8C"/>
<stop offset="0.9964" stop-color="#26264F"/>
</linearGradient>
<linearGradient id="paint3_linear_1_7" x1="303.595" y1="99.3201" x2="539.734" y2="903.237" gradientUnits="userSpaceOnUse">
<stop stop-color="#444B8C"/>
<stop offset="0.9964" stop-color="#26264F"/>
</linearGradient>
<linearGradient id="paint4_linear_1_7" x1="392.082" y1="79.5185" x2="669.609" y2="831.156" gradientUnits="userSpaceOnUse">
<stop stop-color="#FFC444"/>
<stop offset="0.9964" stop-color="#F36F56"/>
</linearGradient>
<linearGradient id="paint5_linear_1_7" x1="-2032.59" y1="2170.85" x2="-1842.76" y2="1991.85" gradientUnits="userSpaceOnUse">
<stop stop-color="#311944"/>
<stop offset="1" stop-color="#893976"/>
</linearGradient>
<linearGradient id="paint6_linear_1_7" x1="58.1701" y1="196.135" x2="210.287" y2="58.0927" gradientUnits="userSpaceOnUse">
<stop stop-color="#FF9085"/>
<stop offset="1" stop-color="#FB6FBB"/>
</linearGradient>
<linearGradient id="paint7_linear_1_7" x1="212.291" y1="316.167" x2="182.147" y2="346.849" gradientUnits="userSpaceOnUse">
<stop stop-color="#FFC444"/>
<stop offset="0.9964" stop-color="#F36F56"/>
</linearGradient>
<linearGradient id="paint8_linear_1_7" x1="137.572" y1="607.616" x2="137.826" y2="539.547" gradientUnits="userSpaceOnUse">
<stop stop-color="#AA80F9"/>
<stop offset="0.9964" stop-color="#6165D7"/>
</linearGradient>
<linearGradient id="paint9_linear_1_7" x1="130.83" y1="629.489" x2="127.589" y2="594.316" gradientUnits="userSpaceOnUse">
<stop stop-color="#FFC444"/>
<stop offset="0.9964" stop-color="#F36F56"/>
</linearGradient>
<linearGradient id="paint10_linear_1_7" x1="97.4417" y1="607.466" x2="97.6957" y2="539.397" gradientUnits="userSpaceOnUse">
<stop stop-color="#AA80F9"/>
<stop offset="0.9964" stop-color="#6165D7"/>
</linearGradient>
<linearGradient id="paint11_linear_1_7" x1="90.1584" y1="633.236" x2="86.9172" y2="598.063" gradientUnits="userSpaceOnUse">
<stop stop-color="#FFC444"/>
<stop offset="0.9964" stop-color="#F36F56"/>
</linearGradient>
<linearGradient id="paint12_linear_1_7" x1="129.599" y1="452.26" x2="104.649" y2="579.816" gradientUnits="userSpaceOnUse">
<stop stop-color="#311944"/>
<stop offset="1" stop-color="#893976"/>
</linearGradient>
<linearGradient id="paint13_linear_1_7" x1="142.05" y1="514.634" x2="104.565" y2="517.638" gradientUnits="userSpaceOnUse">
<stop stop-color="#311944"/>
<stop offset="1" stop-color="#893976"/>
</linearGradient>
<linearGradient id="paint14_linear_1_7" x1="121.317" y1="521.685" x2="64.4124" y2="526.246" gradientUnits="userSpaceOnUse">
<stop stop-color="#311944"/>
<stop offset="1" stop-color="#893976"/>
</linearGradient>
<linearGradient id="paint15_linear_1_7" x1="166.265" y1="333.867" x2="124.164" y2="604.246" gradientUnits="userSpaceOnUse">
<stop stop-color="#AA80F9"/>
<stop offset="0.9964" stop-color="#6165D7"/>
</linearGradient>
<linearGradient id="paint16_linear_1_7" x1="76.7235" y1="630.647" x2="56.361" y2="903.525" gradientUnits="userSpaceOnUse">
<stop stop-color="#AA80F9"/>
<stop offset="0.9964" stop-color="#6165D7"/>
</linearGradient>
<linearGradient id="paint17_linear_1_7" x1="7.49363" y1="537.606" x2="119.877" y2="345.102" gradientUnits="userSpaceOnUse">
<stop stop-color="#AA80F9"/>
<stop offset="0.9964" stop-color="#6165D7"/>
</linearGradient>
<linearGradient id="paint18_linear_1_7" x1="47.3337" y1="404.504" x2="71.0362" y2="436.523" gradientUnits="userSpaceOnUse">
<stop stop-color="#FFC444"/>
<stop offset="0.9964" stop-color="#F36F56"/>
</linearGradient>
<linearGradient id="paint19_linear_1_7" x1="26.9739" y1="626.935" x2="6.61142" y2="899.814" gradientUnits="userSpaceOnUse">
<stop stop-color="#AA80F9"/>
<stop offset="0.9964" stop-color="#6165D7"/>
</linearGradient>
<linearGradient id="paint20_linear_1_7" x1="114.643" y1="324.717" x2="91.8249" y2="296.326" gradientUnits="userSpaceOnUse">
<stop stop-color="#FFC444"/>
<stop offset="0.9964" stop-color="#F36F56"/>
</linearGradient>
<linearGradient id="paint21_linear_1_7" x1="97.2924" y1="314.29" x2="109.386" y2="274.504" gradientUnits="userSpaceOnUse">
<stop stop-color="#444B8C"/>
<stop offset="0.9964" stop-color="#3E4177"/>
</linearGradient>
<linearGradient id="paint22_linear_1_7" x1="128.136" y1="300.406" x2="94.1182" y2="285.265" gradientUnits="userSpaceOnUse">
<stop stop-color="#FFC444"/>
<stop offset="0.9964" stop-color="#F36F56"/>
</linearGradient>
<linearGradient id="paint23_linear_1_7" x1="190.991" y1="347.376" x2="497.698" y2="347.376" gradientUnits="userSpaceOnUse">
<stop stop-color="#311944"/>
<stop offset="1" stop-color="#893976"/>
</linearGradient>
<linearGradient id="paint24_linear_1_7" x1="377.459" y1="950.614" x2="340.888" y2="317.147" gradientUnits="userSpaceOnUse">
<stop offset="0.003597" stop-color="#F36F56"/>
<stop offset="1" stop-color="#FFC444"/>
</linearGradient>
<linearGradient id="paint25_linear_1_7" x1="232.364" y1="314.022" x2="453.036" y2="314.022" gradientUnits="userSpaceOnUse">
<stop offset="0.003597" stop-color="#F36F56"/>
<stop offset="1" stop-color="#FFC444"/>
</linearGradient>
<linearGradient id="paint26_linear_1_7" x1="224.565" y1="371.916" x2="445.066" y2="371.916" gradientUnits="userSpaceOnUse">
<stop offset="0.003597" stop-color="#F36F56"/>
<stop offset="1" stop-color="#FFC444"/>
</linearGradient>
<linearGradient id="paint27_linear_1_7" x1="332.946" y1="393.293" x2="283.654" y2="705.876" gradientUnits="userSpaceOnUse">
<stop offset="0.003597" stop-color="#F36F56"/>
<stop offset="1" stop-color="#FFC444"/>
</linearGradient>
<linearGradient id="paint28_linear_1_7" x1="349.16" y1="67.8361" x2="359.687" y2="381.31" gradientUnits="userSpaceOnUse">
<stop offset="0.003597" stop-color="#F36F56"/>
<stop offset="1" stop-color="#FFC444"/>
</linearGradient>
</defs>
</svg>
